<?xml version="1.0" encoding="utf-8"?>
<!-- Generator: Adobe Illustrator 26.0.0, SVG Export Plug-In . SVG Version: 6.00 Build 0)  -->
<svg version="1.1" id="图层_1" xmlns="http://www.w3.org/2000/svg" xmlns:xlink="http://www.w3.org/1999/xlink" x="0px" y="0px"
	 viewBox="0 0 720 900" style="enable-background:new 0 0 720 900;" xml:space="preserve">
<style type="text/css">
	.st0{fill:none;stroke:#000000;stroke-width:2;}
	.st1{fill:none;stroke:#000000;stroke-miterlimit:10;}
</style>
<path class="st0" d="M162.1,120c-35.7,45.7-54.3,187.2,105.8,195.8"/>
<path class="st0" d="M580.8,135.8c-78.6,42.9-124.4,72.9-55.7,130.1s135.1,158.7,11.1,201.5"/>
<path class="st1" d="M180.1,600.2c0,0-68.6,148.6-31.4,168.7c37.2,20,47.2-42.9,70-90s74.3,20,118.6,57.2s77.2-67.2,108.6-151
	S224.4,548.7,180.1,600.2z M391.4,625c-70.4,38-71.2-68.8-97.2-4.3c-26,64.5-71.1,14.2-81-7.7c-10-21.9,126.2-57,126.2-57
	S461.8,587,391.4,625z"/>
</svg>
