<?xml version="1.0" encoding="utf-8"?>
<!-- Generator: Adobe Illustrator 26.0.0, SVG Export Plug-In . SVG Version: 6.00 Build 0)  -->
<svg version="1.1" id="图层_1" xmlns="http://www.w3.org/2000/svg" xmlns:xlink="http://www.w3.org/1999/xlink" x="0px" y="0px"
	 viewBox="0 0 720 900" style="enable-background:new 0 0 720 900;" xml:space="preserve">
<style type="text/css">
	.st0{fill:none;stroke:#000000;}
	.st1{fill:none;stroke:#00FF00;}
</style>
<g>
	<line class="st0" x1="521.4" y1="343.7" x2="436.4" y2="572.7"/>
	<line class="st1" x1="490.3" y1="427.4" x2="462" y2="503.7"/>
</g>
<g>
	<line class="st1" x1="153.5" y1="458.2" x2="192.5" y2="515.2"/>
	<line class="st0" x1="251.9" y1="602" x2="94.1" y2="371.4"/>
</g>
<g>
	<line class="st0" x1="173" y1="70.3" x2="73.4" y2="273.7"/>
	<path class="st0" d="M96.2,87.9c0,0,258.3,196.1-33.2,131.8"/>
</g>
<g>
	<line class="st0" x1="301" y1="88.8" x2="436.4" y2="220.4"/>
	<line class="st0" x1="417.5" y1="95.6" x2="283.6" y2="238.6"/>
</g>
<g>
	<path class="st0" d="M514.8,76.8c17.2,18.1,205.2,94.8,7.5,190.5"/>
	<path class="st0" d="M673,76.8c-85.7,39-300.4,119.5-33.9,156.5"/>
</g>
<g>
	<path class="st0" d="M42.3,706.1c88.1,0,159.4,71.4,159.4,159.4"/>
	<path class="st0" d="M361.2,706.1c-88.1,0-159.4,71.4-159.4,159.4"/>
</g>
<g>
	<path class="st0" d="M649.7,706.1c-88.1,0-159.4,71.4-159.4,159.4"/>
	<line class="st0" x1="490.3" y1="865.6" x2="490.3" y2="661.1"/>
</g>
</svg>
