<?xml version="1.0" encoding="utf-8"?>
<!-- Generator: Adobe Illustrator 26.0.0, SVG Export Plug-In . SVG Version: 6.00 Build 0)  -->
<svg version="1.1" id="图层_1" xmlns="http://www.w3.org/2000/svg" xmlns:xlink="http://www.w3.org/1999/xlink" x="0px" y="0px"
	 viewBox="0 0 720 900" style="enable-background:new 0 0 720 900;" xml:space="preserve">
<style type="text/css">
	.st0{fill:none;stroke:#000000;stroke-width:2;}
	.st1{fill:none;stroke:#000000;stroke-width:2;stroke-miterlimit:4;}
</style>
<path class="st0" d="M279.8,387.5c90.8-261.9,363,29.1,363-291"/>
<path class="st0" d="M320.1,234.1c-113.9-192.8,226-268.4,163.8-25.7"/>
<path class="st0" d="M567.6,678.3c122.7-77.7,12.6-56.4,12.6-56.4L360,481.8l187-127.3"/>
<path class="st0" d="M73,55.8c-71,174,41,277,41,277s106-129,63-270"/>
<rect x="413.7" y="724.9" transform="matrix(0.9479 -0.3186 0.3186 0.9479 -224.4636 194.4406)" class="st1" width="137" height="117.1"/>
<path class="st0" d="M197.8,458c0,0-113.8,34.8-88.3,101s103.4,40.6,103.4,40.6L197.8,458z"/>
<circle class="st0" cx="191.3" cy="791" r="73"/>
</svg>
