<?xml version="1.0" encoding="utf-8"?>
<!-- Generator: Adobe Illustrator 26.0.0, SVG Export Plug-In . SVG Version: 6.00 Build 0)  -->
<svg version="1.1" id="图层_1" xmlns="http://www.w3.org/2000/svg" xmlns:xlink="http://www.w3.org/1999/xlink" x="0px" y="0px"
	 viewBox="0 0 720 900" style="enable-background:new 0 0 720 900;" xml:space="preserve">
<style type="text/css">
	.st0{fill:none;stroke:#000000;stroke-width:2;}
</style>
<path class="st0" d="M97,49.3C61.3,95,42.7,236.5,202.8,245.1"/>
<path class="st0" d="M64.8,661.2L170.6,857"/>
<path class="st0" d="M613,39.7c-220.8,56.2,131.2,211.2-44.6,331.6"/>
<path class="st0" d="M413.8,88.9c-208.2,0-173.2,144-22.3,144"/>
<path class="st0" d="M404.5,428.4c0-191.1-144.7-76-144.7,0"/>
<line class="st0" x1="294.3" y1="739" x2="452.3" y2="739"/>
<line class="st0" x1="607.3" y1="632" x2="607.3" y2="857"/>
<path class="st0" d="M205.7,533.3c-97.2,0-176-78.8-176-176"/>
<path class="st0" d="M361.6,503c0,0-19,114,74,129"/>
<path class="st0" d="M597.7,574.3c-93-15-74-129-74-129"/>
</svg>
